<svg width="225" height="87" viewBox="0 0 225 87" fill="none" xmlns="http://www.w3.org/2000/svg">
<path d="M56.7958 18.6067V77C56.7958 82.5229 52.3187 87 46.7958 87H42.4642V58.9587H14.3317V87H0V18.6067H14.3317V45.5732H42.4642V18.6067H56.7958Z" fill="white"/>
<path d="M113.848 46.4098C113.848 46.6052 113.76 47.973 113.583 50.5134H77.5767C78.2255 53.7702 79.7589 56.3431 82.177 58.232C84.5951 60.121 87.6029 61.0655 91.2006 61.0655C93.6776 61.0655 95.8598 60.6747 97.7471 59.893C99.6934 59.0462 100.077 58.6229 101.728 56.8642L110.486 64.7783C106.004 70.4451 99.4575 73.2786 90.8467 73.2786C85.4797 73.2786 80.732 72.1387 76.6036 69.8589C72.4751 67.514 69.2903 64.2897 67.0491 60.1861C64.808 56.0825 63.6874 51.4253 63.6874 46.2144C63.6874 41.0686 64.7785 36.4439 66.9606 32.3403C69.2018 28.1715 72.2392 24.9473 76.0728 22.6675C79.9653 20.3226 84.3002 19.1501 89.0774 19.1501C93.7366 19.1501 97.9535 20.2575 101.728 22.4721C105.503 24.6867 108.452 27.8784 110.575 32.0472C112.757 36.1508 113.848 40.9383 113.848 46.4098ZM89.1658 30.6793C86.04 30.6793 83.4155 31.6563 81.2923 33.6104C79.1691 35.5645 77.8716 38.2351 77.3998 41.6222H100.843C100.372 38.3003 99.0741 35.6622 96.9509 33.7081C94.8277 31.6889 92.2327 30.6793 89.1658 30.6793Z" fill="white"/>
<path d="M123.036 0H136.837V72.4969H123.036V0Z" fill="white"/>
<path d="M149.645 0H163.446V72.4969L149.645 69.8589V0Z" fill="white"/>
<path d="M198.902 73.2786C193.889 73.2786 189.377 72.1387 185.367 69.8589C181.415 67.514 178.319 64.2897 176.078 60.1861C173.837 56.0825 172.716 51.4253 172.716 46.2144C172.716 41.0034 173.837 36.3462 176.078 32.2426C178.319 28.139 181.415 24.9473 185.367 22.6675C189.377 20.3226 193.889 19.1501 198.902 19.1501C203.915 19.1501 208.398 20.3226 212.349 22.6675C216.301 24.9473 219.397 28.139 221.638 32.2426C223.879 36.3462 225 41.0034 225 46.2144C225 51.4253 223.879 56.0825 221.638 60.1861C219.397 64.2897 216.301 67.514 212.349 69.8589C208.398 72.1387 203.915 73.2786 198.902 73.2786ZM198.902 60.7724C202.441 60.7724 205.331 59.4696 207.572 56.8642C209.872 54.1936 211.022 50.6436 211.022 46.2144C211.022 41.7851 209.872 38.2677 207.572 35.6622C205.331 32.9916 202.441 31.6563 198.902 31.6563C195.364 31.6563 192.444 32.9916 190.144 35.6622C187.844 38.2677 186.694 41.7851 186.694 46.2144C186.694 50.6436 187.844 54.1936 190.144 56.8642C192.444 59.4696 195.364 60.7724 198.902 60.7724Z" fill="white"/>
</svg>
